Coordinates
version=1
nRows=22
nColumns=18
inDegrees=yes

Units are S.I. units (second, meters, Newtons, ...)
Angles are in degrees.

endheader
time	ground_thorax_rot_x	ground_thorax_rot_y	ground_thorax_rot_z	ground_thorax_tx	ground_thorax_ty	ground_thorax_tz	clav_prot	clav_elev	scapula_abduction	scapula_elevation	scapula_upward_rot	scapula_winging	plane_elv	shoulder_elv	axial_rot	elbow_flexion	pro_sup
      2.72000000	      1.85968912	     -5.28481154	     -9.63218718	     -0.00423131	      0.00403036	     -0.00078352	    -18.22525465	     -6.43545209	     -6.83102564	     -4.26250445	      8.67972158	      6.68279766	    -21.83842144	     18.59563975	     45.90011094	      0.00000000	     34.32000000
      2.73000000	      1.89181405	     -5.26682271	     -9.67928916	     -0.00423131	      0.00403036	     -0.00078352	    -18.21900450	     -6.42304967	     -6.83791482	     -4.24440255	      8.65079771	      6.68470463	    -21.87700749	     18.59752217	     45.89731998	      0.00000000	     34.32000000
      2.74000000	      1.81331187	     -5.14851328	     -9.57934492	     -0.00423131	      0.00403036	     -0.00078352	    -18.28462944	     -6.36969566	     -6.93354409	     -4.22225535	      8.70755183	      6.66468953	    -22.92849074	     18.41224206	     46.29627913	      0.00000000	     34.32000000
      2.75000000	      1.79141836	     -5.05422197	     -9.58307177	     -0.00423131	      0.00403036	     -0.00078352	    -18.37596727	     -6.35928675	     -7.10069463	     -4.21622856	      8.69717997	      6.67989962	    -22.94898164	     18.49917900	     44.35680070	      0.00000000	     34.32000000
      2.76000000	      1.77268507	     -5.16499425	     -9.56010358	     -0.00423131	      0.00403036	     -0.00078352	    -18.25321508	     -6.43960405	     -6.93628744	     -4.23681692	      8.57070539	      6.71545694	    -22.73938064	     18.67162665	     43.15245554	      0.00000000	     34.32000000
      2.77000000	      1.85259003	     -5.03504102	     -9.56060849	     -0.00423131	      0.00403036	     -0.00078352	    -18.42681704	     -6.38203350	     -7.19545174	     -4.23104977	      8.67695991	      6.70152128	    -22.94407330	     18.53076775	     43.57821248	      0.00000000	     34.32000000
      2.78000000	      1.83569518	     -5.15944113	     -9.62662603	     -0.00423131	      0.00403036	     -0.00078352	    -18.29963918	     -6.45728156	     -7.02450661	     -4.24758060	      8.55087455	      6.73506998	    -22.13825822	     18.93272748	     39.74468809	      0.00000000	     34.32000000
      2.79000000	      1.67700071	     -5.16698875	     -9.61292754	     -0.00423131	      0.00403036	     -0.00078352	    -18.34663115	     -6.50449005	     -7.06557014	     -4.30322162	      8.60972889	      6.74550845	    -22.90281875	     18.67427739	     40.78956194	      0.00000000	     34.32000000
      2.80000000	      1.87459318	     -5.31667217	     -9.52160561	     -0.00423131	      0.00403036	     -0.00078352	    -18.18629013	     -6.23275135	     -6.90322667	     -4.05126536	      8.49484761	      6.65215898	    -21.82745413	     19.06673304	     38.98507281	      0.00000000	     34.32000000
      2.81000000	      1.64816887	     -5.25898621	     -9.67749422	     -0.00423131	      0.00403036	     -0.00078352	    -18.29092051	     -6.56792141	     -6.97075406	     -4.34131812	      8.58022526	      6.76447370	    -22.78528258	     18.76109534	     39.84612074	      0.00000000	     34.32000000
      2.82000000	      1.63016921	     -5.34304002	     -9.53683690	     -0.00423131	      0.00403036	     -0.00078352	    -18.18331223	     -6.51716819	     -6.87706981	     -4.25200555	      8.42209913	      6.76549104	    -22.76626615	     18.86114227	     39.59107691	      0.00000000	     34.32000000
      2.83000000	      1.66873294	     -5.20454846	     -9.58680508	     -0.00423131	      0.00403036	     -0.00078352	    -18.32791345	     -6.47268839	     -7.01287797	     -4.29137132	      8.65979999	      6.71934531	    -23.92328336	     18.03147074	     46.50203791	      0.00000000	     34.32000000
      2.84000000	      1.71837193	     -5.22530656	     -9.52321953	     -0.00423131	      0.00403036	     -0.00078352	    -18.29447802	     -6.41882821	     -6.98244582	     -4.23897672	      8.62841326	      6.70230878	    -23.73656340	     18.23861043	     44.30700584	      0.00000000	     34.32000000
      2.85000000	      1.74125421	     -5.13878166	     -9.61615614	     -0.00423131	      0.00403036	     -0.00078352	    -18.42362503	     -6.42784424	     -7.18865504	     -4.26211888	      8.66120810	      6.72041105	    -23.53604434	     18.22572654	     43.13088884	      0.00000000	     34.32000000
      2.86000000	      1.65324806	     -5.11658904	     -9.55956555	     -0.00423131	      0.00403036	     -0.00078352	    -18.44019557	     -6.47567998	     -7.23029890	     -4.28828294	      8.61831749	      6.75004802	    -24.21902961	     18.07585235	     43.95325311	      0.00000000	     34.32000000
      2.87000000	      1.73883447	     -5.00073899	     -9.51927532	     -0.00423131	      0.00403036	     -0.00078352	    -18.54959357	     -6.35143029	     -7.40723797	     -4.21872735	      8.69402977	      6.70821364	    -24.54268329	     17.86165276	     45.05903648	      0.00000000	     34.32000000
      2.88000000	      1.96188235	     -5.07493722	     -9.48747226	     -0.00423131	      0.00403036	     -0.00078352	    -18.48297701	     -6.19947883	     -7.41992847	     -4.04600741	      8.51116362	      6.68980867	    -22.84899296	     18.45982624	     41.10967320	      0.00000000	     34.32000000
      2.89000000	      1.61968441	     -5.03491871	     -9.56508609	     -0.00423131	      0.00403036	     -0.00078352	    -18.54167299	     -6.56767895	     -7.43764936	     -4.33942069	      8.52497605	      6.82189777	    -24.47744985	     17.96986405	     43.01750149	      0.00000000	     34.32000000
      2.90000000	      1.62556055	     -5.13757163	     -9.60321775	     -0.00423131	      0.00403036	     -0.00078352	    -18.49466549	     -6.58970569	     -7.40606619	     -4.32501509	      8.42088987	      6.84636443	    -23.82669368	     18.10331363	     41.66687545	      0.00000000	     34.32000000
      2.91000000	      1.88010694	     -5.04481592	     -9.62231650	     -0.00423131	      0.00403036	     -0.00078352	    -18.68098066	     -6.29340678	     -7.61261523	     -4.19939845	      8.76133344	      6.69416901	    -24.17630095	     17.79857309	     43.45004376	      0.00000000	     34.32000000
      2.92000000	      1.85444386	     -5.03302254	     -9.59411086	     -0.00423131	      0.00403036	     -0.00078352	    -18.67245799	     -6.30750114	     -7.59549097	     -4.20975761	      8.76063859	      6.69806904	    -24.16958914	     17.77107029	     43.46037930	      0.00000000	     34.32000000
      2.93000000	      1.76893734	     -5.04158415	     -9.48979374	     -0.00423131	      0.00403036	     -0.00078352	    -18.60944908	     -6.33987262	     -7.68270383	     -4.12416778	      8.37541595	      6.79122625	    -23.13392059	     18.14284764	     40.34851531	      0.00000000	     34.32000000
